<svg xmlns="http://www.w3.org/2000/svg" xmlns:xlink="http://www.w3.org/1999/xlink" width="1148.607" height="928.119" viewBox="0 0 1148.607 928.119">
  <defs>
    <linearGradient id="linear-gradient" x1="0.218" y1="0.794" x2="0.699" y2="0.254" gradientUnits="objectBoundingBox">
      <stop offset="0" stop-color="#fff" stop-opacity="0"/>
      <stop offset="0.98" stop-color="#0800bf"/>
    </linearGradient>
    <linearGradient id="linear-gradient-2" x1="0.304" y1="0.763" x2="0.807" y2="-0.027" xlink:href="#linear-gradient"/>
    <linearGradient id="linear-gradient-3" x1="0.43" y1="0.764" x2="0.618" y2="-0.139" xlink:href="#linear-gradient"/>
    <linearGradient id="linear-gradient-4" x1="0.403" y1="0.557" x2="0.812" y2="-0.019" xlink:href="#linear-gradient"/>
  </defs>
  <g id="code_development_" transform="translate(-24.052 -12.019)">
    <path id="Path_1" data-name="Path 1" d="M531.88,85.67,41.109,371.06a31.26,31.26,0,0,0,.465,54.324L642.22,761.58a49.478,49.478,0,0,0,47.587.4l461.569-248.256a37.632,37.632,0,0,0,1.161-65.607Z" transform="translate(0 170.76)" fill="#ebffff" stroke="#a7e1ff" stroke-width="3"/>
    <path id="Path_2" data-name="Path 2" d="M329.193,315.206C356.67,287,386.2,260.882,412.354,231.58L306.66,175.63,82.43,295.494C124.342,317.462,185.7,364.452,245.6,405.17,273.475,375.171,300.621,344.541,329.193,315.206Z" transform="translate(131.871 379.331)" opacity="0.32" fill="url(#linear-gradient)"/>
    <path id="Path_3" data-name="Path 3" d="M222.179,286.069c46.16-34.147,92.154-68.56,140.306-99.754L263.527,133.95,55.06,262.641C86.685,279.233,113.7,301.235,158.5,332.893,179.669,317.164,200.874,301.7,222.179,286.069Z" transform="translate(68.414 282.697)" opacity="0.32" fill="url(#linear-gradient-2)"/>
    <path id="Path_4" data-name="Path 4" d="M328.313,420.105c49.777-26.78,156.566-130.782,205.746-158.159L346.5,162.69l-224,119.9C174.5,309.732,256.4,375.6,328.313,420.105Z" transform="translate(224.772 349.33)" opacity="0.32" fill="url(#linear-gradient-3)"/>
    <path id="Path_5" data-name="Path 5" d="M264.724,150.86l-63.051,30.364a14.535,14.535,0,0,0-1.029,25.619l149.5,87.177a14.535,14.535,0,0,0,19.546-4.679l36.337-56.414" transform="translate(389.31 321.902)" fill="#56403d"/>
    <path id="Path_6" data-name="Path 6" d="M687.779,311.052l-515-296.673a16.592,16.592,0,0,0-25.121,14.5V344.138a12.909,12.909,0,0,0,6.471,11.183L702.281,671.739a6.239,6.239,0,0,0,9.358-5.409v-314a47.619,47.619,0,0,0-23.86-41.282Z" transform="translate(283.104 0)" fill="#e1dede"/>
    <path id="Path_7" data-name="Path 7" d="M169.917,22.2,657.734,302.883a34.213,34.213,0,0,1,17.157,29.634V558.539a12.345,12.345,0,0,1-18.484,10.719L158.866,283.9a12.179,12.179,0,0,1-6.106-10.553V32.127A11.449,11.449,0,0,1,169.917,22.2Z" transform="translate(294.93 20.083)" fill="#fff"/>
    <ellipse id="Ellipse_1" data-name="Ellipse 1" cx="5.31" cy="0.033" rx="5.31" ry="0.033" transform="translate(670.077 468.589) rotate(-10.9)" fill="#ab643c"/>
    <ellipse id="Ellipse_2" data-name="Ellipse 2" cx="5.31" cy="5.774" rx="5.31" ry="5.774" transform="translate(927.477 324.094)" fill="#659fe4"/>
    <ellipse id="Ellipse_3" data-name="Ellipse 3" cx="5.31" cy="5.774" rx="5.31" ry="5.774" transform="translate(910.553 315.698)" fill="#c5e9ff"/>
    <path id="Path_8" data-name="Path 8" d="M133.773,185.84l-.033,3.153,1.593,1.991" transform="translate(250.832 403.003)" fill="#adcee1"/>
    <path id="Path_9" data-name="Path 9" d="M197.43,175.214l-61.79,37.93a3.816,3.816,0,0,0,0,6.637l93.316,53.295a8.562,8.562,0,0,0,8.562,0l61.591-35.939c4.48-3.65,4.181-10.553,0-10.851l-92.918-51.2A8.694,8.694,0,0,0,197.43,175.214Z" transform="translate(250.758 375.466)" fill="#88d3d8"/>
    <path id="Path_10" data-name="Path 10" d="M197.43,174.424l-61.79,38a3.816,3.816,0,0,0,0,6.637l93.415,53.1a8.562,8.562,0,0,0,8.562,0l61.492-35.806a4.745,4.745,0,0,0,0-8.23l-92.918-53.826A8.7,8.7,0,0,0,197.43,174.424Z" transform="translate(250.758 373.635)" fill="#fff"/>
    <path id="Path_11" data-name="Path 11" d="M153.791,231.188s25.917-82.5,25.785-82.5.8-3.684,5.376-1.56l97.962,58.206s4.745,1.958,3.816,6.371-25.353,80.739-25.353,80.739a4.148,4.148,0,0,1-4.646,1.593c-2.987-.929-100.65-58.206-100.65-58.206A3.75,3.75,0,0,1,153.791,231.188Z" transform="translate(296.919 311.727)" fill="#50d3ff"/>
    <path id="Path_12" data-name="Path 12" d="M177.593,148.93l100.351,59.036L256.805,277.92,155.16,220.609Z" transform="translate(300.494 317.428)" fill="#e1dede"/>
    <path id="Path_13" data-name="Path 13" d="M168.479,176.632l-22.6,13.938a2.721,2.721,0,0,0,0,4.679l80.706,46.459a7.964,7.964,0,0,0,7.964,0c5.21-3.02,14.17-8.429,19.679-11.781a3.318,3.318,0,0,0,0-5.675l-81.2-47.653a4.414,4.414,0,0,0-4.546.033Z" transform="translate(275.892 380.154)" fill="#e1dede"/>
    <path id="Path_14" data-name="Path 14" d="M167.6,188.034l28.174,16a2.821,2.821,0,0,1,0,4.911L179.182,218.6a3.75,3.75,0,0,1-3.75,0L146.594,202a2.356,2.356,0,0,1,0-4.115l17.323-9.955A3.75,3.75,0,0,1,167.6,188.034Z" transform="translate(277.833 406.849)" fill="#e1dede"/>
    <path id="Path_15" data-name="Path 15" d="M168.479,176.632l-22.6,13.938a2.721,2.721,0,0,0,0,4.679l80.706,46.459a7.964,7.964,0,0,0,7.964,0c5.21-3.02,14.17-8.429,19.679-11.781a3.318,3.318,0,0,0,0-5.675l-81.2-47.653a4.414,4.414,0,0,0-4.546.033Z" transform="translate(275.892 380.154)" fill="#053855" opacity="0.1"/>
    <path id="Path_16" data-name="Path 16" d="M167.6,188.034l28.174,16a2.821,2.821,0,0,1,0,4.911L179.182,218.6a3.75,3.75,0,0,1-3.75,0L146.594,202a2.356,2.356,0,0,1,0-4.115l17.323-9.955A3.75,3.75,0,0,1,167.6,188.034Z" transform="translate(277.833 406.849)" fill="#053855" opacity="0.1"/>
    <path id="Path_17" data-name="Path 17" d="M141.248,171.72a99.82,99.82,0,0,0-29.07,42.609c-10.221,28.174,15.3,74.268,15.3,74.268L167.3,257.2" transform="translate(195.24 370.266)" fill="#ff8f6f"/>
    <path id="Path_18" data-name="Path 18" d="M109.684,270.931a30.066,30.066,0,0,0,20.475,28.406,66.369,66.369,0,0,0,25.32,3.319c17.588-1.128,32.986-9.358,45.928-20.707-2.456-31.194-11.25-53.1-18.783-63.549L134.572,195.17c-.232,4.347-25.552,33.683-24.955,69.423Q109.65,267.945,109.684,270.931Z" transform="translate(194.88 424.635)" fill="#3e2928"/>
    <path id="Path_19" data-name="Path 19" d="M173.083,187.739l-50.939-2.489-8.794,61.226c15.165,10.453,55.22,4.148,64.312,2.588C174.974,228.789,175.24,207.982,173.083,187.739Z" transform="translate(203.558 401.635)" fill="#ff8f6f"/>
    <path id="Path_20" data-name="Path 20" d="M173.939,186.293l-5.11,4.48a131.615,131.615,0,0,1,13.274-6.637c3.086-1.394,4.779,3.584,1.726,4.978l-1.56.73q2.456-.929,4.945-1.792a2.634,2.634,0,1,1,1.726,4.978,136.681,136.681,0,0,0-12.71,5.077,93.435,93.435,0,0,1,11.382-2.854c3.318-.631,3.617,4.646.332,5.243a83.163,83.163,0,0,0-12.876,3.484,12.576,12.576,0,0,1,3.949.664c1.527.4,5.442.631,6.139,2.157A2.655,2.655,0,0,1,183,210.518l-19.745,2.024a23.6,23.6,0,0,0-5.31,4.148,91.636,91.636,0,0,0-6.338-6.8,75.523,75.523,0,0,0-6.206-5.442q2.92-2.787,5.973-5.409c.431-.6,1.493-.3,2.688-1.294,6.637-5.708,8.2-6.106,15.431-12.909C174.835,179.523,177.058,183.572,173.939,186.293Z" transform="translate(277.866 394.652)" fill="#ffb5a9"/>
    <path id="Path_21" data-name="Path 21" d="M126.455,175.06s18.55,5.011,26.083,17.024a212.15,212.15,0,0,1,12.411,25.652l33.716-7.865s9.79,11.449,16.393,19.645c0,0-32.919,23.229-50.109,27.046s-35.441-25.552-35.441-25.552-3.783,12.146-3.053-.83" transform="translate(233.726 378.01)" fill="#ff8f6f"/>
    <path id="Path_22" data-name="Path 22" d="M180.07,256.133a37.6,37.6,0,0,1-11.747-16.592c-2.223-7.566.564-14.236,3.318-21.3a68.626,68.626,0,0,0,4.845-21.9c.232-7.4-.631-14.767-1.128-22.134a2.123,2.123,0,0,1,0-.962c-2.456-8.329-7.566-15.365-17.588-16.194-25.917-2.19-27.378,26.548-27.178,38.163s1.427,19.546-7.168,24.457-14.8,17.654-6.637,28.008.83,6.637-4.613,15.763-4.049,20.674,7.168,24.822,63.383-3.65,68.195-8.5a9.955,9.955,0,0,0,2.456-7.035,27.344,27.344,0,0,0-9.922-16.592Z" transform="translate(193.684 335.962)" fill="#007f68"/>
    <path id="Path_23" data-name="Path 23" d="M170.925,207.963c6.272-1.361,67.067-6.206,81.237,14.933s-63.051,51.237-114.289,53.66S143.415,213.87,170.925,207.963Z" transform="translate(212.486 450.934)" fill="#3e2928"/>
    <path id="Path_24" data-name="Path 24" d="M110.18,112.59V216.956l80.838,46.691,65.839-39.158V127.523" transform="translate(196.209 233.174)" fill="#50d3ff"/>
    <path id="Path_25" data-name="Path 25" d="M134.54,257.017V154.011l65.839-38.561V217.859Z" transform="translate(252.687 239.805)" fill="#75d3ff"/>
    <path id="Path_26" data-name="Path 26" d="M176.749,100.71,110.18,140.134l80.838,48.052,65.839-38.561Z" transform="translate(196.209 205.63)" fill="#a7d3ff"/>
    <path id="Path_27" data-name="Path 27" d="M113.36,117.76v21.6l60.562,34.579V152.737Z" transform="translate(203.582 245.16)" fill="#7374b7"/>
    <ellipse id="Ellipse_4" data-name="Ellipse 4" cx="1.626" cy="2.588" rx="1.626" ry="2.588" transform="translate(368.316 402.931) rotate(-17.06)" fill="#f7931e"/>
    <ellipse id="Ellipse_5" data-name="Ellipse 5" cx="1.626" cy="2.588" rx="1.626" ry="2.588" transform="translate(363.112 399.904) rotate(-17.06)" fill="#d9e021"/>
    <line id="Line_1" data-name="Line 1" x1="37.433" y1="21.504" transform="translate(322.317 377.986)" fill="none" stroke="#f2f2f2" stroke-miterlimit="10" stroke-width="0.25"/>
    <path id="Path_28" data-name="Path 28" d="M112.93,126.89v21.6l60.562,34.545V161.867Z" transform="translate(202.585 266.328)" fill="#7374b7"/>
    <ellipse id="Ellipse_6" data-name="Ellipse 6" cx="1.626" cy="2.588" rx="1.626" ry="2.588" transform="translate(366.881 433.21) rotate(-17.06)" fill="#f7931e"/>
    <ellipse id="Ellipse_7" data-name="Ellipse 7" cx="1.626" cy="2.588" rx="1.626" ry="2.588" transform="translate(361.709 430.216) rotate(-17.06)" fill="#d9e021"/>
    <line id="Line_2" data-name="Line 2" x1="37.433" y1="21.504" transform="translate(320.891 408.284)" fill="none" stroke="#f2f2f2" stroke-miterlimit="10" stroke-width="0.25"/>
    <path id="Path_29" data-name="Path 29" d="M112.93,136v21.6l60.562,34.546V170.977Z" transform="translate(202.585 287.45)" fill="#7374b7"/>
    <ellipse id="Ellipse_8" data-name="Ellipse 8" cx="1.626" cy="2.588" rx="1.626" ry="2.588" transform="translate(366.856 463.472) rotate(-17.06)" fill="#f7931e"/>
    <ellipse id="Ellipse_9" data-name="Ellipse 9" cx="1.626" cy="2.588" rx="1.626" ry="2.588" transform="translate(361.685 460.445) rotate(-17.06)" fill="#d9e021"/>
    <line id="Line_3" data-name="Line 3" x1="37.433" y1="21.504" transform="translate(320.891 438.516)" fill="none" stroke="#f2f2f2" stroke-miterlimit="10" stroke-width="0.25"/>
    <path id="Path_30" data-name="Path 30" d="M256.857,132.2l-65.54,38.66L110.18,123.7" transform="translate(196.209 258.932)" fill="none" stroke="#1b1464" stroke-miterlimit="10" stroke-width="0.25"/>
    <path id="Path_31" data-name="Path 31" d="M256.857,141.282l-65.54,38.66L110.18,132.82" transform="translate(196.209 280.077)" fill="none" stroke="#1b1464" stroke-miterlimit="10" stroke-width="0.25"/>
    <path id="Path_32" data-name="Path 32" d="M471.215,177.143V343.8a18.55,18.55,0,0,1-28.074,15.929L284.749,265.249a18.55,18.55,0,0,1-9.06-15.929V85.718a18.55,18.55,0,0,1,27.875-15.962l158.392,91.458a18.55,18.55,0,0,1,9.258,15.929Z" transform="translate(579.942 128.036)" fill="#a7e1ff"/>
    <path id="Path_33" data-name="Path 33" d="M338.245,319.173c27.311-18.185,55.087-35.707,82.7-53.394L381.717,237.14,229.83,300.556c18.351,9.624,43.14,27.643,69.224,45.994C312,337.259,324.971,328,338.245,319.173Z" transform="translate(473.616 521.942)" opacity="0.32" fill="url(#linear-gradient-4)"/>
    <path id="Path_34" data-name="Path 34" d="M348.386,225.8a6.968,6.968,0,0,0-1.228-2.588,15.5,15.5,0,0,0-3.783-3.318c-19.28-13.042-45.994-16.592-66.37-3.883-4.646,2.92-11.581,9.524-8.827,15.763,1.593,3.617,6.438,5.741,9.955,7.2a147.909,147.909,0,0,0,34.877,9.093c4.314.73,8.694,1.46,13.042,1.858a18.019,18.019,0,0,0,15.9-6.8C344.868,239.272,349.747,231.473,348.386,225.8Z" transform="translate(561.072 454.601)" fill="#754c24"/>
    <path id="Path_35" data-name="Path 35" d="M267.57,216.457s17.588,15.929,47.985,13.606,32.753-16.592,32.753-16.592S340.444,314.219,336.3,315.945s-19.679,9.225-27.178,9.79-31.194-8.927-31.791-11.548S267.57,216.457,267.57,216.457Z" transform="translate(561.116 467.063)" fill="#ff8f6f"/>
    <path id="Path_36" data-name="Path 36" d="M271.369,170.713c-.929-1.892-3.816-.232-2.854,1.659,20.807,41.946,24.855,89.168,28.605,135.029.166,2.091,3.484,2.124,3.318,0C296.656,260.909,292.475,213.19,271.369,170.713Z" transform="translate(562.858 365.997)" fill="#007f68"/>
    <path id="Path_37" data-name="Path 37" d="M273.7,170.25s5.807,21.769-.2,32.654-10.951,13.042-3.783,26.548,26.349,15.331,27.61,25.685S288.17,188.734,273.7,170.25Z" transform="translate(557.871 366.858)" fill="#007f68"/>
    <path id="Path_38" data-name="Path 38" d="M307.038,182.819A273.608,273.608,0,0,0,280.49,289.873c0,2.588,3.949,2.555,4.049,0A268.8,268.8,0,0,1,310.39,184.81C311.651,182.52,308.166,180.463,307.038,182.819Z" transform="translate(591.071 393.58)" fill="#007f68"/>
    <path id="Path_39" data-name="Path 39" d="M307.388,192.5c0-2.19-.5-6.637-.265-10.32l-2.323,1.46c-7.9,19.214-19.712,64.346-23.229,78.15,4.812-10.354,24.49-11.781,30.265-26.548a27.179,27.179,0,0,0,.332-19.612,72.411,72.411,0,0,1-4.778-23.13Z" transform="translate(593.575 394.517)" fill="#007f68"/>
    <path id="Path_40" data-name="Path 40" d="M336.407,94.7,285.07,132.431,331.1,197.042" transform="translate(601.689 191.696)" fill="none" stroke="#000" stroke-miterlimit="10" stroke-width="4"/>
    <path id="Path_41" data-name="Path 41" d="M324.965,102.91l37.764,73.8L309.6,201.5" transform="translate(658.562 210.731)" fill="none" stroke="#000" stroke-miterlimit="10" stroke-width="4"/>
    <line id="Line_4" data-name="Line 4" x2="299.195" y2="170.006" transform="translate(475.034 86.424)" fill="none" stroke="#00a99d" stroke-miterlimit="10" stroke-width="4"/>
    <line id="Line_5" data-name="Line 5" x2="48.417" y2="27.51" transform="translate(476.129 130.892)" fill="none" stroke="#d4145a" stroke-miterlimit="10" stroke-width="4"/>
    <line id="Line_6" data-name="Line 6" x2="269.229" y2="148.005" transform="translate(538.915 167.694)" fill="none" stroke="#29abe2" stroke-miterlimit="10" stroke-width="4"/>
    <line id="Line_7" data-name="Line 7" x2="103.404" y2="57.045" transform="translate(475.034 171.41)" fill="none" stroke="#f7931e" stroke-miterlimit="10" stroke-width="4"/>
    <line id="Line_8" data-name="Line 8" x2="226.719" y2="121.258" transform="translate(595.595 239.273)" fill="none" stroke="#00a99d" stroke-miterlimit="10" stroke-width="4"/>
  </g>
</svg>
