<svg id="Group_1" data-name="Group 1" xmlns="http://www.w3.org/2000/svg" width="537.992" height="387.733" viewBox="0 0 537.992 387.733">
  <path id="Path_1" data-name="Path 1" d="M498.588,71.5H470.994a7.881,7.881,0,0,0,0,15.762h27.594A23.67,23.67,0,0,1,522.231,110.9v36.251H15.761V110.9A23.669,23.669,0,0,1,39.4,87.262H436.393a7.881,7.881,0,1,0,0-15.762H39.4A39.448,39.448,0,0,0,0,110.9v86.878a7.881,7.881,0,1,0,15.761,0V162.917H522.231V366.1a7.881,7.881,0,0,0,15.761,0V110.9A39.448,39.448,0,0,0,498.588,71.5Z" transform="translate(0 -71.5)" fill="#ebffff"/>
  <path id="Path_2" data-name="Path 2" d="M530.111,384.1a7.88,7.88,0,0,0-7.881,7.881v20.5a23.67,23.67,0,0,1-23.642,23.642H39.4a23.669,23.669,0,0,1-23.642-23.642V224.248a7.881,7.881,0,1,0-15.761,0V412.475a39.448,39.448,0,0,0,39.4,39.4H498.588a39.448,39.448,0,0,0,39.4-39.4v-20.5A7.88,7.88,0,0,0,530.111,384.1Z" transform="translate(0 -64.146)" fill="#ebffff"/>
  <path id="Path_3" data-name="Path 3" d="M111.42,234.568a7.882,7.882,0,0,0-11.144,0L52.918,281.927a7.882,7.882,0,0,0,0,11.146L99.649,339.8a7.881,7.881,0,0,0,11.144-11.146L69.634,287.5l41.786-41.786A7.881,7.881,0,0,0,111.42,234.568Z" transform="translate(2.569 -63.339)" fill="#ebffff"/>
  <path id="Path_4" data-name="Path 4" d="M209.486,339.8a7.882,7.882,0,0,0,11.144,0l46.733-46.732a7.884,7.884,0,0,0,0-11.146L220,234.568a7.881,7.881,0,0,0-11.144,11.145L250.646,287.5l-41.16,41.158a7.881,7.881,0,0,0,0,11.147Z" transform="translate(10.486 -63.339)" fill="#ebffff"/>
  <path id="Path_5" data-name="Path 5" d="M132.371,370.123a7.883,7.883,0,0,0,7.369-5.087l56-147.525A7.881,7.881,0,1,0,181,211.917L125,359.444a7.885,7.885,0,0,0,7.366,10.679Z" transform="translate(6.32 -64.63)" fill="#ebffff"/>
  <path id="Path_6" data-name="Path 6" d="M33.006,116.513A23.642,23.642,0,1,0,56.648,92.871a23.669,23.669,0,0,0-23.642,23.642Zm31.523,0a7.881,7.881,0,1,1-7.881-7.881A7.889,7.889,0,0,1,64.529,116.513Z" transform="translate(1.676 -70.415)" fill="#ebffff"/>
  <path id="Path_7" data-name="Path 7" d="M91.166,116.513a23.642,23.642,0,1,0,23.642-23.642A23.669,23.669,0,0,0,91.166,116.513Zm31.523,0a7.881,7.881,0,1,1-7.881-7.881A7.889,7.889,0,0,1,122.689,116.513Z" transform="translate(4.628 -70.415)" fill="#ebffff"/>
  <path id="Path_8" data-name="Path 8" d="M149.325,116.513a23.642,23.642,0,1,0,23.642-23.642A23.669,23.669,0,0,0,149.325,116.513Zm31.523,0a7.881,7.881,0,1,1-7.881-7.881A7.889,7.889,0,0,1,180.848,116.513Z" transform="translate(7.581 -70.415)" fill="#ebffff"/>
  <path id="Path_9" data-name="Path 9" d="M336.642,244.652h49.386a23.642,23.642,0,1,0,0-47.284H336.642a23.642,23.642,0,0,0,0,47.284Zm0-31.523h49.386a7.881,7.881,0,1,1,0,15.762H336.642a7.881,7.881,0,1,1,0-15.762Z" transform="translate(15.89 -65.11)" fill="#ebffff"/>
  <path id="Path_10" data-name="Path 10" d="M336.642,304.652h130.3a23.642,23.642,0,0,0,0-47.284h-130.3a23.642,23.642,0,0,0,0,47.284Zm0-31.523h130.3a7.881,7.881,0,1,1,0,15.761h-130.3a7.881,7.881,0,1,1,0-15.761Z" transform="translate(15.89 -62.064)" fill="#ebffff"/>
  <path id="Path_11" data-name="Path 11" d="M336.642,364.652h91.59a23.642,23.642,0,1,0,0-47.284h-91.59a23.642,23.642,0,0,0,0,47.284Zm0-31.523h91.59a7.881,7.881,0,0,1,0,15.761h-91.59a7.881,7.881,0,1,1,0-15.761Z" transform="translate(15.89 -59.018)" fill="#ebffff"/>
</svg>
